<svg viewBox="0 0 93 93" fill="none" xmlns="http://www.w3.org/2000/svg">
  <path d="M46.21 89.4C70.0687 89.4 89.41 70.0587 89.41 46.2C89.41 22.3413 70.0687 3 46.21 3C22.3513 3 3.01002 22.3413 3.01002 46.2C3.01002 70.0587 22.3513 89.4 46.21 89.4Z" fill="#EEEDE1"/>
  <path d="M46.21 1.08275e-06C37.0721 -0.00197682 28.1388 2.70592 20.54 7.78124C12.9411 12.8566 7.01796 20.0713 3.51966 28.5131C0.0213549 36.9549 -0.894986 46.2445 0.886522 55.207C2.66803 64.1696 7.06736 72.4026 13.5282 78.8648C19.9889 85.327 28.221 89.7281 37.1832 91.5115C46.1454 93.295 55.4352 92.3807 63.8777 88.8842C72.3202 85.3877 79.5363 79.4662 84.6132 71.8684C89.6902 64.2706 92.4 55.3379 92.4 46.2C92.3868 33.9528 87.5164 22.2108 78.8573 13.5498C70.1981 4.88879 58.4572 0.0158822 46.21 1.08275e-06ZM84.65 34.46C83.0754 32.8208 81.1856 31.517 79.0942 30.6268C77.0028 29.7366 74.753 29.2785 72.48 29.28V19.92H63.13C63.1315 17.647 62.6734 15.3972 61.7832 13.3058C60.8931 11.2144 59.5892 9.32463 57.95 7.75C64.2408 9.68796 69.9623 13.1348 74.616 17.7902C79.2697 22.4457 82.7144 28.1685 84.65 34.46ZM34.46 7.75C32.8245 9.32689 31.5237 11.2174 30.6354 13.3084C29.7471 15.3994 29.2895 17.6481 29.29 19.92H19.93V29.28C17.6581 29.2795 15.4094 29.7371 13.3184 30.6254C11.2274 31.5137 9.33691 32.8145 7.76002 34.45C9.69935 28.1615 13.1455 22.442 17.7987 17.7887C22.452 13.1355 28.1716 9.68933 34.46 7.75ZM7.76002 57.94C9.33465 59.5792 11.2245 60.883 13.3159 61.7732C15.4073 62.6634 17.6571 63.1215 19.93 63.12V72.47H29.29C29.2895 74.7419 29.7471 76.9906 30.6354 79.0816C31.5237 81.1726 32.8245 83.0631 34.46 84.64C28.1707 82.7022 22.4504 79.2566 17.7969 74.6031C13.1434 69.9496 9.6978 64.2293 7.76002 57.94ZM57.95 84.64C59.5892 83.0654 60.8931 81.1756 61.7832 79.0842C62.6734 76.9928 63.1315 74.743 63.13 72.47H72.48V63.12C74.753 63.1215 77.0028 62.6634 79.0942 61.7732C81.1856 60.883 83.0754 59.5792 84.65 57.94C82.7138 64.2301 79.2687 69.9513 74.615 74.605C69.9613 79.2587 64.2401 82.7038 57.95 84.64Z" fill="#669CC4"/>
  <path d="M32.63 60.81C30.4585 59.162 28.7077 57.0236 27.5206 54.5696C26.3336 52.1156 25.744 49.4155 25.8 46.69C25.7297 43.8757 26.3146 41.0836 27.5087 38.5341C28.7027 35.9847 30.4731 33.7478 32.68 32C36.51 29.06 41.01 27.45 47.27 27.45C53.06 27.45 57.77 28.02 61.55 29.31C62.01 32.46 62.01 36 62.63 41L61.96 41.1C60.2345 38.5961 58.2207 36.3038 55.96 34.27C53.2225 31.5675 49.7824 29.6864 46.03 28.84C44.03 29.56 41.47 31.79 39.92 35.25C38.5582 38.5785 37.9076 42.1551 38.01 45.75C37.8695 49.7131 38.7804 53.6428 40.65 57.14C42.1874 60.0216 44.6545 62.2984 47.65 63.6C48.8275 63.3572 49.8863 62.7184 50.65 61.79C51.7811 60.4314 52.3563 58.6952 52.26 56.93C52.2864 56.0054 52.1124 55.086 51.7499 54.235C51.3874 53.384 50.845 52.6216 50.16 52C48.5208 50.7188 46.5433 49.9438 44.47 49.77L44.58 48.94C48.58 49.1 53.58 49.2 57.58 49.2C60.58 49.2 64.41 49.05 66.58 48.94L66.69 49.67C65.6798 50.0828 64.8282 50.8082 64.26 51.74C63.5179 53.061 63.1708 54.5674 63.26 56.08C63.2809 58.0265 63.65 59.9536 64.35 61.77C58.8533 64.0264 52.9505 65.1259 47.01 65C41.16 65 36.4 63.61 32.63 60.81ZM29.26 46.22C29.1788 42.8668 29.5967 39.5202 30.5 36.29C28.5445 39.2299 27.5168 42.6893 27.55 46.22C27.4898 49.7926 28.5609 53.2928 30.61 56.22C29.6461 52.9764 29.1907 49.6031 29.26 46.22ZM32.78 46.22C32.78 38.77 34.13 34.79 35.52 32.05C33.14 34.17 31.01 38.51 31.01 46.22C31.01 53.93 33.65 58.22 36.24 60.66C33.8435 56.2322 32.6504 51.2531 32.78 46.22ZM36.3 46.22C36.3 37.27 38.68 31.94 41.73 29.3C37.18 31.37 34.49 37.3 34.49 46.22C34.49 55.14 38.26 60.81 43.01 63.09C39.87 60 36.3 55.17 36.3 46.22ZM56.74 31.58C57.9013 32.0086 59.0951 32.343 60.31 32.58C59.2998 31.8075 58.1897 31.1751 57.01 30.7C58.0599 30.6954 59.1049 30.5577 60.12 30.29C56.9785 29.35 53.7191 28.8618 50.44 28.84C52.7815 29.8189 54.9494 31.1696 56.86 32.84C58.3072 34.084 59.6179 35.4786 60.77 37C60.0477 34.8053 58.6338 32.9037 56.74 31.58ZM55.39 56.73C55.39 53.31 53.73 51.19 50.79 50.41C51.7786 51.1631 52.5685 52.146 53.0913 53.2735C53.614 54.4009 53.8539 55.6389 53.79 56.88C53.8525 58.104 53.6539 59.3273 53.2074 60.4687C52.7608 61.6101 52.0766 62.6434 51.2 63.5C54.1 62.52 55.39 60.55 55.39 56.73ZM58.6 56.57C58.6395 54.4863 58.3596 52.4089 57.77 50.41C57.1156 52.3954 56.8177 54.4808 56.89 56.57C56.7982 58.6078 57.0969 60.6444 57.77 62.57C58.3759 60.6295 58.6563 58.6021 58.6 56.57ZM61.6 56.26C61.4973 54.2446 62.0025 52.2448 63.05 50.52C62.0593 51.1607 61.2585 52.0552 60.7309 53.1104C60.2033 54.1657 59.9682 55.3431 60.05 56.52C60.0059 57.423 60.1975 58.3219 60.606 59.1285C61.0146 59.935 61.6259 60.6213 62.38 61.12C61.7948 59.5701 61.5459 57.9134 61.65 56.26H61.6Z" fill="#EEEDE1"/>
  <path d="M25.16 26.15C25.878 26.15 26.46 25.568 26.46 24.85C26.46 24.132 25.878 23.55 25.16 23.55C24.4421 23.55 23.86 24.132 23.86 24.85C23.86 25.568 24.4421 26.15 25.16 26.15Z" fill="#EEEDE1"/>
  <path d="M67.25 26.15C67.968 26.15 68.55 25.568 68.55 24.85C68.55 24.132 67.968 23.55 67.25 23.55C66.532 23.55 65.95 24.132 65.95 24.85C65.95 25.568 66.532 26.15 67.25 26.15Z" fill="#EEEDE1"/>
  <path d="M67.25 68.85C67.968 68.85 68.55 68.268 68.55 67.55C68.55 66.832 67.968 66.25 67.25 66.25C66.532 66.25 65.95 66.832 65.95 67.55C65.95 68.268 66.532 68.85 67.25 68.85Z" fill="#EEEDE1"/>
  <path d="M25.16 68.85C25.878 68.85 26.46 68.268 26.46 67.55C26.46 66.832 25.878 66.25 25.16 66.25C24.4421 66.25 23.86 66.832 23.86 67.55C23.86 68.268 24.4421 68.85 25.16 68.85Z" fill="#EEEDE1"/>
  <path d="M46.21 20L43.61 11.4C43.4946 11.0035 43.4707 10.5861 43.54 10.179C43.6093 9.77199 43.77 9.38596 44.01 9.05C44.2628 8.70682 44.5927 8.42785 44.9731 8.23559C45.3535 8.04333 45.7738 7.94317 46.2 7.94317C46.6263 7.94317 47.0465 8.04333 47.4269 8.23559C47.8073 8.42785 48.1372 8.70682 48.39 9.05C48.6346 9.38952 48.7979 9.78073 48.8673 10.1934C48.9367 10.6061 48.9102 11.0292 48.79 11.43L46.21 20Z" fill="#EEEDE1"/>
  <path d="M44.27 22.25L36.35 18C35.9882 17.7918 35.6791 17.5031 35.4467 17.1563C35.2143 16.8095 35.0649 16.4138 35.01 16C34.9432 15.5777 34.9773 15.1456 35.1095 14.739C35.2417 14.3324 35.4682 13.9628 35.7705 13.6605C36.0728 13.3582 36.4424 13.1317 36.849 12.9995C37.2556 12.8673 37.6877 12.8332 38.11 12.9C38.5285 12.9603 38.9271 13.1173 39.2743 13.3586C39.6215 13.5999 39.9076 13.9188 40.11 14.29L44.27 22.25Z" fill="#EEEDE1"/>
  <path d="M48.15 22.25L56.06 18C56.4327 17.7995 56.7528 17.5138 56.9943 17.1663C57.2359 16.8188 57.392 16.4192 57.45 16C57.5186 15.5783 57.4862 15.1463 57.3554 14.7395C57.2245 14.3327 56.999 13.9629 56.6973 13.6602C56.3957 13.3576 56.0265 13.1309 55.6202 12.9987C55.2139 12.8666 54.782 12.8327 54.36 12.9C53.9416 12.9603 53.5429 13.1173 53.1957 13.3586C52.8486 13.5999 52.5624 13.9188 52.36 14.29L48.15 22.25Z" fill="#EEEDE1"/>
  <path d="M70.16 44.26L74.4 36.34C74.6024 35.9688 74.8886 35.6499 75.2357 35.4086C75.5829 35.1673 75.9816 35.0103 76.4 34.95C76.822 34.8827 77.2539 34.9166 77.6602 35.0487C78.0665 35.1809 78.4357 35.4076 78.7373 35.7102C79.039 36.0129 79.2645 36.3827 79.3954 36.7895C79.5262 37.1963 79.5587 37.6283 79.49 38.05C79.432 38.4692 79.2759 38.8688 79.0343 39.2163C78.7928 39.5638 78.4727 39.8495 78.1 40.05L70.16 44.26Z" fill="#EEEDE1"/>
  <path d="M72.38 46.2L81.01 43.6C81.4116 43.4812 81.8351 43.4564 82.2478 43.5275C82.6605 43.5986 83.0513 43.7637 83.39 44.01C83.7332 44.2628 84.0122 44.5927 84.2044 44.9731C84.3967 45.3535 84.4968 45.7738 84.4968 46.2C84.4968 46.6262 84.3967 47.0465 84.2044 47.4269C84.0122 47.8073 83.7332 48.1372 83.39 48.39C83.0505 48.6346 82.6593 48.7979 82.2466 48.8673C81.8339 48.9366 81.4108 48.9102 81.01 48.79L72.38 46.2Z" fill="#EEEDE1"/>
  <path d="M70.16 48.14L74.4 56.05C74.6005 56.4227 74.8862 56.7428 75.2337 56.9843C75.5812 57.2258 75.9808 57.382 76.4 57.44C76.821 57.5068 77.2518 57.4731 77.6573 57.3414C78.0627 57.2098 78.4312 56.984 78.7326 56.6826C79.034 56.3812 79.2598 56.0127 79.3914 55.6073C79.5231 55.2018 79.5569 54.771 79.49 54.35C79.432 53.9308 79.2759 53.5312 79.0343 53.1837C78.7928 52.8362 78.4727 52.5505 78.1 52.35L70.16 48.14Z" fill="#EEEDE1"/>
  <path d="M48.15 70.15L56.06 74.39C56.4327 74.5905 56.7528 74.8762 56.9943 75.2237C57.2359 75.5712 57.392 75.9708 57.45 76.39C57.5169 76.811 57.4831 77.2418 57.3514 77.6473C57.2198 78.0527 56.994 78.4212 56.6926 78.7226C56.3912 79.024 56.0227 79.2498 55.6173 79.3814C55.2118 79.5131 54.781 79.5468 54.36 79.48C53.9408 79.422 53.5412 79.2658 53.1937 79.0243C52.8462 78.7828 52.5605 78.4627 52.36 78.09L48.15 70.15Z" fill="#EEEDE1"/>
  <path d="M46.21 72.37L43.61 81C43.4962 81.395 43.4731 81.8106 43.5424 82.2158C43.6116 82.6209 43.7715 83.0052 44.01 83.34C44.2628 83.6832 44.5927 83.9621 44.9731 84.1544C45.3535 84.3467 45.7738 84.4468 46.2 84.4468C46.6263 84.4468 47.0465 84.3467 47.4269 84.1544C47.8073 83.9621 48.1372 83.6832 48.39 83.34C48.6346 83.0005 48.7979 82.6093 48.8673 82.1966C48.9367 81.7839 48.9102 81.3608 48.79 80.96L46.21 72.37Z" fill="#EEEDE1"/>
  <path d="M44.27 70.15L36.35 74.39C35.9788 74.5924 35.6599 74.8786 35.4187 75.2257C35.1774 75.5729 35.0203 75.9715 34.96 76.39C34.8928 76.812 34.9266 77.2439 35.0588 77.6502C35.1909 78.0565 35.4176 78.4257 35.7203 78.7273C36.0229 79.029 36.3928 79.2545 36.7995 79.3853C37.2063 79.5162 37.6383 79.5486 38.06 79.48C38.4792 79.422 38.8788 79.2658 39.2263 79.0243C39.5739 78.7828 39.8595 78.4627 40.06 78.09L44.27 70.15Z" fill="#EEEDE1"/>
  <path d="M22.26 48.14L18.01 56.05C17.8095 56.4227 17.5239 56.7428 17.1763 56.9843C16.8288 57.2258 16.4292 57.382 16.01 57.44C15.5883 57.5086 15.1563 57.4762 14.7495 57.3453C14.3428 57.2145 13.9729 56.989 13.6703 56.6873C13.3676 56.3857 13.1409 56.0165 13.0088 55.6102C12.8766 55.2039 12.8428 54.772 12.91 54.35C12.9703 53.9315 13.1274 53.5329 13.3687 53.1857C13.6099 52.8386 13.9288 52.5524 14.3 52.35L22.26 48.14Z" fill="#EEEDE1"/>
  <path d="M20.01 46.2L11.41 43.6C11.0136 43.4846 10.5961 43.4607 10.1891 43.53C9.78201 43.5992 9.39598 43.76 9.06002 44C8.71684 44.2528 8.43787 44.5827 8.24561 44.9631C8.05335 45.3435 7.95319 45.7638 7.95319 46.19C7.95319 46.6162 8.05335 47.0365 8.24561 47.4169C8.43787 47.7973 8.71684 48.1272 9.06002 48.38C9.39954 48.6246 9.79075 48.7879 10.2034 48.8573C10.6161 48.9266 11.0392 48.9002 11.44 48.78L20.01 46.2Z" fill="#EEEDE1"/>
  <path d="M22.26 44.26L18.01 36.34C17.8018 35.9781 17.5132 35.6691 17.1663 35.4367C16.8195 35.2043 16.4239 35.0549 16.01 35C15.5877 34.9332 15.1556 34.9673 14.749 35.0995C14.3424 35.2317 13.9728 35.4582 13.6705 35.7605C13.3682 36.0628 13.1417 36.4324 13.0095 36.839C12.8773 37.2456 12.8432 37.6777 12.91 38.1C12.9703 38.5185 13.1274 38.9171 13.3687 39.2643C13.6099 39.6114 13.9288 39.8976 14.3 40.1L22.26 44.26Z" fill="#EEEDE1"/>
</svg>
